<svg width="26" height="25" viewBox="0 0 26 25" fill="none" xmlns="http://www.w3.org/2000/svg">
<g clip-path="url(#clip0)">
<path d="M4.74744 0C2.11757 0 0 2.03612 0 4.56485V20.4352C0 22.9639 2.11757 25 4.74744 25H13.6931V15.2266H11.0053V11.7078H13.6931V8.70158C13.6931 6.3397 15.2811 4.1711 18.9394 4.1711C20.4206 4.1711 21.5158 4.30783 21.5158 4.30783L21.4297 7.59378C21.4297 7.59378 20.3127 7.58363 19.0938 7.58363C17.7745 7.58363 17.563 8.16807 17.563 9.13832V11.7079H21.5345L21.3614 15.2266H17.563V25.0001H21.2526C23.8824 25.0001 26 22.9639 26 20.4352V4.56488C26 2.03615 23.8824 2.5e-05 21.2526 2.5e-05H4.74742L4.74744 0Z" fill="#252525"/>
</g>
<defs>
<clipPath id="clip0">
<rect width="26" height="25" fill="white"/>
</clipPath>
</defs>
</svg>
