<svg width="26" height="25" viewBox="0 0 26 25" fill="none" xmlns="http://www.w3.org/2000/svg">
<path d="M13 6.10647C9.45312 6.10647 6.59062 8.87951 6.59062 12.3155C6.59062 15.7516 9.45312 18.5246 13 18.5246C16.5469 18.5246 19.4094 15.7516 19.4094 12.3155C19.4094 8.87951 16.5469 6.10647 13 6.10647ZM13 16.351C10.7062 16.351 8.83437 14.5376 8.83437 12.3155C8.83437 10.0935 10.7062 8.2801 13 8.2801C15.2937 8.2801 17.1656 10.0935 17.1656 12.3155C17.1656 14.5376 15.2937 16.351 13 16.351ZM19.6719 4.4051C18.8437 4.4051 18.175 5.05295 18.175 5.8552C18.175 6.65744 18.8437 7.30529 19.6719 7.30529C20.5 7.30529 21.1687 6.66047 21.1687 5.8552C21.169 5.6647 21.1304 5.47603 21.0553 5.29999C20.9802 5.12394 20.8699 4.96399 20.7309 4.82929C20.5918 4.69459 20.4267 4.58778 20.245 4.51499C20.0633 4.4422 19.8685 4.40486 19.6719 4.4051ZM25.4937 12.3155C25.4937 10.6445 25.5094 8.9885 25.4125 7.32043C25.3156 5.38293 24.8594 3.6634 23.3969 2.2466C21.9312 0.826779 20.1594 0.387814 18.1594 0.293967C16.4344 0.200119 14.725 0.215256 13.0031 0.215256C11.2781 0.215256 9.56875 0.200119 7.84687 0.293967C5.84687 0.387814 4.07187 0.829807 2.60937 2.2466C1.14375 3.66643 0.690621 5.38293 0.593746 7.32043C0.496871 8.99152 0.512496 10.6475 0.512496 12.3155C0.512496 13.9836 0.496871 15.6426 0.593746 17.3107C0.690621 19.2482 1.14687 20.9677 2.60937 22.3845C4.075 23.8043 5.84687 24.2433 7.84687 24.3371C9.57187 24.431 11.2812 24.4158 13.0031 24.4158C14.7281 24.4158 16.4375 24.431 18.1594 24.3371C20.1594 24.2433 21.9344 23.8013 23.3969 22.3845C24.8625 20.9647 25.3156 19.2482 25.4125 17.3107C25.5125 15.6426 25.4937 13.9866 25.4937 12.3155ZM22.7437 19.454C22.5156 20.005 22.2406 20.4167 21.8 20.8405C21.3594 21.2674 20.9375 21.5338 20.3687 21.7548C18.725 22.3875 14.8219 22.2452 13 22.2452C11.1781 22.2452 7.27187 22.3875 5.62812 21.7578C5.05937 21.5368 4.63437 21.2704 4.19687 20.8436C3.75625 20.4167 3.48125 20.008 3.25312 19.4571C2.60312 17.8616 2.75 14.0805 2.75 12.3155C2.75 10.5506 2.60312 6.76643 3.25312 5.17404C3.48125 4.62307 3.75625 4.21135 4.19687 3.78752C4.6375 3.36369 5.05937 3.09426 5.62812 2.87326C7.27187 2.24358 11.1781 2.38586 13 2.38586C14.8219 2.38586 18.7281 2.24358 20.3719 2.87326C20.9406 3.09426 21.3656 3.36067 21.8031 3.78752C22.2437 4.21438 22.5187 4.62307 22.7469 5.17404C23.3969 6.76643 23.25 10.5506 23.25 12.3155C23.25 14.0805 23.3969 17.8616 22.7437 19.454Z" fill="#252525"/>
</svg>
