<svg width="29" height="26" viewBox="0 0 29 26" fill="none" xmlns="http://www.w3.org/2000/svg">
<path d="M14.4862 0.0668945C6.899 0.0668945 0.75 5.84452 0.75 12.9706C0.75 18.437 4.37037 23.1102 9.48125 24.9909C9.36025 23.9705 9.253 22.3998 9.528 21.2864C9.77825 20.2789 11.1395 14.872 11.1395 14.872C11.1395 14.872 10.7284 14.0983 10.7284 12.9551C10.7284 11.1623 11.8352 9.82285 13.2144 9.82285C14.3872 9.82285 14.9524 10.6495 14.9524 11.6402C14.9524 12.7485 14.2016 14.4031 13.8152 15.9376C13.4921 17.2215 14.5014 18.2691 15.8489 18.2691C18.2895 18.2691 20.1677 15.8511 20.1677 12.3597C20.1677 9.27002 17.8041 7.11035 14.4299 7.11035C10.5207 7.11035 8.22587 9.86419 8.22587 12.7097C8.22587 13.818 8.681 15.0076 9.24887 15.6547C9.29713 15.7035 9.33121 15.7631 9.34783 15.8278C9.36444 15.8925 9.36304 15.9601 9.34375 16.0241C9.23925 16.431 9.00687 17.3081 8.96287 17.4876C8.90237 17.724 8.7635 17.7744 8.50225 17.6607C6.78762 16.9102 5.71512 14.5542 5.71512 12.6606C5.71512 8.5906 8.8625 4.85252 14.7915 4.85252C19.5572 4.85252 23.2601 8.04164 23.2601 12.3054C23.2601 16.7539 20.275 20.3306 16.1321 20.3306C14.7392 20.3306 13.4316 19.6524 12.9834 18.8503L12.1267 21.9167C11.8174 23.0379 10.98 24.4432 10.4204 25.3009C11.7378 25.683 13.1089 25.8767 14.4876 25.8757C22.0735 25.8757 28.2239 20.0981 28.2239 12.9719C28.2239 5.84581 22.0721 0.0668945 14.4862 0.0668945Z" fill="#252525"/>
</svg>
